<svg width="170" height="170" viewBox="0 0 170 170" fill="none" xmlns="http://www.w3.org/2000/svg">
<path d="M30.35 103.3C27.75 103.3 25.25 102.883 22.85 102.05C20.4833 101.183 18.65 100.083 17.35 98.75L18.8 95.9C20.0333 97.1 21.6833 98.1167 23.75 98.95C25.85 99.75 28.05 100.15 30.35 100.15C32.55 100.15 34.3333 99.8833 35.7 99.35C37.1 98.7833 38.1166 98.0333 38.75 97.1C39.4166 96.1667 39.75 95.1333 39.75 94C39.75 92.6333 39.35 91.5333 38.55 90.7C37.7833 89.8667 36.7666 89.2167 35.5 88.75C34.2333 88.25 32.8333 87.8167 31.3 87.45C29.7666 87.0833 28.2333 86.7 26.7 86.3C25.1666 85.8667 23.75 85.3 22.45 84.6C21.1833 83.9 20.15 82.9833 19.35 81.85C18.5833 80.6833 18.2 79.1667 18.2 77.3C18.2 75.5667 18.65 73.9833 19.55 72.55C20.4833 71.0833 21.9 69.9167 23.8 69.05C25.7 68.15 28.1333 67.7 31.1 67.7C33.0666 67.7 35.0166 67.9833 36.95 68.55C38.8833 69.0833 40.55 69.8333 41.95 70.8L40.7 73.75C39.2 72.75 37.6 72.0167 35.9 71.55C34.2333 71.0833 32.6166 70.85 31.05 70.85C28.95 70.85 27.2166 71.1333 25.85 71.7C24.4833 72.2667 23.4666 73.0333 22.8 74C22.1666 74.9333 21.85 76 21.85 77.2C21.85 78.5667 22.2333 79.6667 23 80.5C23.8 81.3333 24.8333 81.9833 26.1 82.45C27.4 82.9167 28.8166 83.3333 30.35 83.7C31.8833 84.0667 33.4 84.4667 34.9 84.9C36.4333 85.3333 37.8333 85.9 39.1 86.6C40.4 87.2667 41.4333 88.1667 42.2 89.3C43 90.4333 43.4 91.9167 43.4 93.75C43.4 95.45 42.9333 97.0333 42 98.5C41.0666 99.9333 39.6333 101.1 37.7 102C35.8 102.867 33.35 103.3 30.35 103.3Z" fill="white"/>
<path d="M61.4117 103.25C58.8784 103.25 56.595 102.683 54.5617 101.55C52.5617 100.383 50.9784 98.8 49.8117 96.8C48.645 94.7667 48.0617 92.45 48.0617 89.85C48.0617 87.2167 48.645 84.9 49.8117 82.9C50.9784 80.9 52.5617 79.3333 54.5617 78.2C56.5617 77.0667 58.845 76.5 61.4117 76.5C64.0117 76.5 66.3117 77.0667 68.3117 78.2C70.345 79.3333 71.9284 80.9 73.0617 82.9C74.2284 84.9 74.8117 87.2167 74.8117 89.85C74.8117 92.45 74.2284 94.7667 73.0617 96.8C71.9284 98.8 70.345 100.383 68.3117 101.55C66.2784 102.683 63.9784 103.25 61.4117 103.25ZM61.4117 100.1C63.3117 100.1 64.995 99.6833 66.4617 98.85C67.9284 97.9833 69.0784 96.7833 69.9117 95.25C70.7784 93.6833 71.2117 91.8833 71.2117 89.85C71.2117 87.7833 70.7784 85.9833 69.9117 84.45C69.0784 82.9167 67.9284 81.7333 66.4617 80.9C64.995 80.0333 63.3284 79.6 61.4617 79.6C59.595 79.6 57.9284 80.0333 56.4617 80.9C54.995 81.7333 53.8284 82.9167 52.9617 84.45C52.095 85.9833 51.6617 87.7833 51.6617 89.85C51.6617 91.8833 52.095 93.6833 52.9617 95.25C53.8284 96.7833 54.995 97.9833 56.4617 98.85C57.9284 99.6833 59.5784 100.1 61.4117 100.1Z" fill="white"/>
<path d="M82.8093 103V68H85.8594L101.859 95.3H100.259L116.109 68H119.159V103H115.609V73.55H116.459L101.859 98.55H100.109L85.4093 73.55H86.3594V103H82.8093Z" fill="white"/>
<path d="M140.963 103.25C138.23 103.25 135.83 102.683 133.763 101.55C131.697 100.383 130.08 98.8 128.913 96.8C127.747 94.7667 127.163 92.45 127.163 89.85C127.163 87.25 127.713 84.95 128.813 82.95C129.947 80.95 131.48 79.3833 133.413 78.25C135.38 77.0833 137.58 76.5 140.013 76.5C142.48 76.5 144.663 77.0667 146.563 78.2C148.497 79.3 150.013 80.8667 151.113 82.9C152.213 84.9 152.763 87.2167 152.763 89.85C152.763 90.0167 152.747 90.2 152.713 90.4C152.713 90.5667 152.713 90.75 152.713 90.95H129.863V88.3H150.813L149.413 89.35C149.413 87.45 148.997 85.7667 148.163 84.3C147.363 82.8 146.263 81.6333 144.863 80.8C143.463 79.9667 141.847 79.55 140.013 79.55C138.213 79.55 136.597 79.9667 135.163 80.8C133.73 81.6333 132.613 82.8 131.813 84.3C131.013 85.8 130.613 87.5167 130.613 89.45V90C130.613 92 131.047 93.7667 131.913 95.3C132.813 96.8 134.047 97.9833 135.613 98.85C137.213 99.6833 139.03 100.1 141.063 100.1C142.663 100.1 144.147 99.8167 145.513 99.25C146.913 98.6833 148.113 97.8167 149.113 96.65L151.113 98.95C149.947 100.35 148.48 101.417 146.713 102.15C144.98 102.883 143.063 103.25 140.963 103.25Z" fill="white"/>
<path d="M168.35 85C168.35 131.033 131.033 168.35 85 168.35C38.9671 168.35 1.65 131.033 1.65 85C1.65 38.9671 38.9671 1.65 85 1.65C131.033 1.65 168.35 38.9671 168.35 85Z" stroke="white" stroke-width="3.3"/>
<line x1="73" y1="108.35" x2="153" y2="108.35" stroke="white" stroke-width="3.3"/>
</svg>
