<svg width="37" height="36" viewBox="0 0 37 36" fill="none" xmlns="http://www.w3.org/2000/svg">
<path d="M18.7846 22.4231C24.6618 22.4231 29.3974 17.4993 29.3974 11.4615C29.3974 5.42376 24.6618 0.5 18.7846 0.5C12.9075 0.5 8.1718 5.42376 8.1718 11.4615C8.1718 17.4993 12.9075 22.4231 18.7846 22.4231Z" fill="#5F3547" stroke="white"/>
<path d="M18.4359 35.5C23.252 35.5 27.6463 35.351 30.8448 34.8333C32.4392 34.5753 33.7794 34.2194 34.7337 33.7193C35.6845 33.2211 36.3718 32.509 36.3718 31.5128C36.3718 30.5482 35.7223 29.7296 34.7909 29.0689C33.8464 28.3991 32.5123 27.8163 30.9086 27.3352C27.695 26.3711 23.2853 25.782 18.4359 25.782C13.5865 25.782 9.17682 26.3711 5.96318 27.3352C4.35954 27.8163 3.02536 28.3991 2.08093 29.0689C1.14949 29.7296 0.5 30.5482 0.5 31.5128C0.5 32.509 1.18728 33.2211 2.13812 33.7193C3.0924 34.2194 4.43258 34.5753 6.02697 34.8333C9.22548 35.351 13.6198 35.5 18.4359 35.5Z" fill="#5F3547" stroke="white"/>
</svg>
